<?xml version="1.0" encoding="UTF-8" standalone="no"?>
<!-- Created with Inkscape (http://www.inkscape.org/) -->

<svg
   width="46.483383mm"
   height="47.004997mm"
   viewBox="0 0 46.483383 47.004997"
   version="1.1"
   id="svg5"
   xmlns="http://www.w3.org/2000/svg"
   xmlns:svg="http://www.w3.org/2000/svg">
  <defs
     id="defs2" />
  <g
     id="layer1"
     transform="translate(-34.115115,-51.467616)">
    <path
       style="fill:#afe9c6;stroke:none;stroke-width:0.264583"
       d="m 36.82948,53.00007 c -0.925024,0.710969 -1.639913,1.681617 -2.092893,2.75677 -0.452979,1.075154 -0.647966,2.252043 -0.618598,3.418355 0.05874,2.332624 1.002131,4.574762 2.309081,6.507756 2.613898,3.86599 6.62016,6.609824 9.328795,10.410039 2.265391,3.178344 3.519121,6.943311 5.047148,10.534828 1.528028,3.591517 3.469443,7.18988 6.649289,9.453162 2.79249,1.987579 6.390641,2.756908 9.777607,2.230662 3.386965,-0.526246 6.539032,-2.312089 8.845091,-4.847945 2.306058,-2.535855 3.773758,-5.793616 4.297245,-9.181009 0.523487,-3.387393 0.119537,-6.894749 -1.014749,-10.129229 C 77.088923,67.684498 71.995564,62.477423 66.096109,58.985961 60.196653,55.4945 53.50666,53.567598 46.804068,52.129149 c -1.686745,-0.361994 -3.396227,-0.696901 -5.120951,-0.658525 -1.724725,0.03838 -3.485821,0.478148 -4.853637,1.529446 z"
       id="path2667" />
  </g>
</svg>
